<svg width="99" height="99" viewBox="0 0 99 99" fill="none" xmlns="http://www.w3.org/2000/svg">
<path fill-rule="evenodd" clip-rule="evenodd" d="M57.8382 62.669C65.3692 54.8481 70 44.2148 70 32.5C70 20.3988 65.0587 9.45167 57.0836 1.56632C60.2059 0.549608 63.539 0 67.0005 0C84.6736 0 99.0005 14.3269 99.0005 32C99.0005 49.6731 84.6736 64 67.0005 64C63.8164 64 60.7409 63.5349 57.8382 62.669Z" fill="#998ACB"/>
<path fill-rule="evenodd" clip-rule="evenodd" d="M62.669 41.1623C54.8481 33.6313 44.2148 29.0005 32.5 29.0005C20.3988 29.0005 9.45167 33.9418 1.56632 41.9169C0.549607 38.7946 -2.82178e-07 35.4615 -4.33485e-07 32C-1.206e-06 14.3269 14.3269 -6.26248e-07 32 -1.39876e-06C49.6731 -2.17128e-06 64 14.3269 64 32C64 35.1841 63.5349 38.2596 62.669 41.1623Z" fill="#998ACB"/>
<path fill-rule="evenodd" clip-rule="evenodd" d="M41.1623 35.331C33.6313 43.1519 29.0005 53.7852 29.0005 65.5C29.0005 77.6012 33.9418 88.5483 41.9169 96.4337C38.7946 97.4504 35.4615 98 32 98C14.3269 98 -1.2525e-06 83.6731 -2.79753e-06 66C-4.34256e-06 48.3269 14.3269 34 32 34C35.1841 34 38.2596 34.4651 41.1623 35.331Z" fill="#998ACB"/>
<path fill-rule="evenodd" clip-rule="evenodd" d="M36.331 57.7547C44.1519 65.2857 54.7852 69.9165 66.5 69.9165C78.6012 69.9165 89.5483 64.9752 97.4337 57.0001C98.4504 60.1224 99 63.4555 99 66.917C99 84.5901 84.6731 98.917 67 98.917C49.3269 98.917 35 84.5901 35 66.917C35 63.7329 35.4651 60.6574 36.331 57.7547Z" fill="#998ACB"/>
<circle cx="50.5" cy="49.5" r="6.5" fill="#998ACB"/>
</svg>
